<svg width="1287" height="439" viewBox="0 0 1287 439" fill="none" xmlns="http://www.w3.org/2000/svg">
<g clip-path="url(#clip0_185_748)">
<path d="M353.825 362.68C352.855 363.838 351.044 364.976 348.393 366.096C345.743 367.254 342.737 367.832 339.377 367.832C334.897 367.832 331.519 366.75 329.241 364.584C327.001 362.382 325.489 359.32 324.705 355.4C323.959 351.48 323.585 346.926 323.585 341.736C323.585 337.966 323.623 334.064 323.697 330.032C323.772 325.963 323.865 321.894 323.977 317.824C324.127 313.755 324.276 309.798 324.425 305.952C324.575 302.07 324.724 298.411 324.873 294.976C325.06 291.504 325.228 288.387 325.377 285.624C327.729 285.438 329.895 285.344 331.873 285.344C333.18 285.344 334.468 285.382 335.737 285.456C337.007 285.531 338.369 285.643 339.825 285.792C339.639 288.854 339.433 292.326 339.209 296.208C339.023 300.054 338.817 304.03 338.593 308.136C338.407 312.243 338.22 316.275 338.033 320.232C337.847 324.152 337.697 327.755 337.585 331.04C337.511 334.326 337.473 337.014 337.473 339.104C337.473 341.643 337.585 344.051 337.809 346.328C338.071 348.568 338.612 350.398 339.433 351.816C340.255 353.235 341.487 353.944 343.129 353.944C344.473 353.944 345.556 353.646 346.377 353.048C347.199 352.414 347.871 351.592 348.393 350.584C348.655 350.995 349.047 351.779 349.569 352.936C350.092 354.094 350.652 355.363 351.249 356.744C351.884 358.126 352.444 359.376 352.929 360.496C353.415 361.616 353.713 362.344 353.825 362.68ZM387.791 367.048C377.935 367.048 370.562 364.398 365.671 359.096C360.78 353.758 358.335 346.048 358.335 335.968C358.335 329.398 359.586 323.891 362.087 319.448C364.626 315.006 368.135 311.664 372.615 309.424C377.132 307.147 382.34 306.008 388.239 306.008C394.362 306.008 399.42 307.408 403.415 310.208C407.447 313.008 410.452 316.891 412.431 321.856C414.447 326.822 415.455 332.571 415.455 339.104C415.455 344.742 414.372 349.651 412.207 353.832C410.042 358.014 406.906 361.262 402.799 363.576C398.692 365.891 393.69 367.048 387.791 367.048ZM387.231 352.992C389.62 352.992 391.692 352.582 393.447 351.76C395.239 350.902 396.732 349.726 397.927 348.232C399.122 346.702 399.999 344.947 400.559 342.968C401.156 340.99 401.455 338.88 401.455 336.64C401.455 332.907 400.932 329.603 399.887 326.728C398.842 323.854 397.274 321.614 395.183 320.008C393.13 318.366 390.554 317.544 387.455 317.544C384.244 317.544 381.575 318.347 379.447 319.952C377.356 321.558 375.807 323.704 374.799 326.392C373.791 329.08 373.287 332.011 373.287 335.184C373.287 340.374 374.463 344.648 376.815 348.008C379.204 351.331 382.676 352.992 387.231 352.992ZM458.65 304.552C460.965 304.963 463.149 305.43 465.202 305.952C467.256 306.475 468.954 306.942 470.298 307.352C471.68 307.763 472.52 308.043 472.818 308.192C472.146 310.992 471.269 314.259 470.186 317.992C469.104 321.688 467.89 325.608 466.546 329.752C465.202 333.896 463.784 338.078 462.29 342.296C460.834 346.515 459.36 350.584 457.866 354.504C456.373 358.387 454.954 361.896 453.61 365.032C451.893 365.331 449.709 365.48 447.058 365.48C445.826 365.48 444.632 365.443 443.474 365.368C442.317 365.256 441.328 365.144 440.506 365.032C438.49 360.851 436.53 356.446 434.626 351.816C432.76 347.15 430.93 342.352 429.138 337.424C427.384 332.496 425.685 327.55 424.042 322.584C422.437 317.582 420.906 312.654 419.45 307.8C420.01 307.688 420.85 307.502 421.97 307.24C423.128 306.979 424.378 306.68 425.722 306.344C427.104 306.008 428.448 305.672 429.754 305.336C431.061 305 432.125 304.72 432.946 304.496C433.544 306.774 434.309 309.518 435.242 312.728C436.213 315.902 437.277 319.243 438.434 322.752C439.592 326.262 440.749 329.678 441.906 333C443.064 336.323 444.109 339.291 445.042 341.904C446.013 344.518 446.778 346.515 447.338 347.896L446.61 348.12C447.394 345.955 448.197 343.566 449.018 340.952C449.877 338.339 450.736 335.576 451.594 332.664C452.49 329.752 453.349 326.747 454.17 323.648C455.029 320.512 455.832 317.339 456.578 314.128C457.325 310.88 458.016 307.688 458.65 304.552ZM533.68 354.784C532.746 355.979 531.496 357.23 529.928 358.536C528.397 359.806 526.549 360.982 524.384 362.064C522.218 363.11 519.717 363.968 516.88 364.64C514.042 365.312 510.869 365.648 507.36 365.648C501.722 365.648 496.738 364.547 492.408 362.344C488.114 360.142 484.754 356.912 482.328 352.656C479.938 348.363 478.744 343.062 478.744 336.752C478.744 330.518 480.013 325.104 482.552 320.512C485.09 315.883 488.618 312.299 493.136 309.76C497.653 307.222 502.88 305.952 508.816 305.952C516.32 305.952 522.218 308.118 526.512 312.448C530.805 316.742 533.101 322.64 533.4 330.144C533.437 331.451 533.418 332.664 533.344 333.784C533.306 334.867 533.194 336.043 533.008 337.312C532.485 337.275 531.365 337.238 529.648 337.2C527.93 337.126 525.97 337.07 523.768 337.032C521.565 336.958 519.437 336.902 517.384 336.864C515.368 336.827 513.781 336.808 512.624 336.808C509.226 336.808 505.848 336.976 502.488 337.312C499.128 337.611 496.253 337.947 493.864 338.32C493.864 339.104 493.92 339.87 494.032 340.616C494.144 341.363 494.293 342.072 494.48 342.744C495.04 344.536 495.992 346.086 497.336 347.392C498.717 348.662 500.36 349.632 502.264 350.304C504.205 350.976 506.24 351.312 508.368 351.312C510.421 351.312 512.269 351.032 513.912 350.472C515.554 349.912 517.01 349.203 518.28 348.344C519.586 347.486 520.725 346.59 521.696 345.656C522.666 344.723 523.525 343.902 524.272 343.192C524.496 343.379 525.018 343.883 525.84 344.704C526.661 345.526 527.594 346.515 528.64 347.672C529.685 348.83 530.656 350.043 531.552 351.312C532.485 352.582 533.194 353.739 533.68 354.784ZM494.312 328.856C496.328 328.52 498.754 328.222 501.592 327.96C504.466 327.699 507.77 327.568 511.504 327.568C513.482 327.568 515.2 327.606 516.656 327.68C518.149 327.718 519.194 327.755 519.792 327.792C519.792 326.859 519.661 325.851 519.4 324.768C519.064 323.312 518.41 321.912 517.44 320.568C516.506 319.187 515.274 318.067 513.744 317.208C512.213 316.35 510.365 315.92 508.2 315.92C505.512 315.92 503.141 316.499 501.088 317.656C499.034 318.776 497.41 320.326 496.216 322.304C495.058 324.246 494.424 326.43 494.312 328.856ZM596.039 395.16C590.514 395.16 585.567 394.32 581.199 392.64C576.831 390.96 573.285 389.206 570.559 387.376C570.97 386.294 571.586 384.912 572.407 383.232C573.266 381.552 574.143 379.91 575.039 378.304C575.973 376.699 576.719 375.504 577.279 374.72C578.511 375.504 580.154 376.419 582.207 377.464C584.261 378.51 586.538 379.424 589.039 380.208C591.541 380.992 594.061 381.384 596.599 381.384C599.511 381.384 601.957 380.619 603.935 379.088C605.951 377.558 607.575 375.504 608.807 372.928C610.077 370.39 610.991 367.552 611.551 364.416C612.149 361.28 612.466 358.107 612.503 354.896C611.757 356.278 610.655 357.64 609.199 358.984C607.781 360.291 606.045 361.374 603.991 362.232C601.975 363.054 599.661 363.464 597.047 363.464C591.447 363.464 587.098 361.915 583.999 358.816C580.901 355.68 578.735 351.443 577.503 346.104C576.309 340.728 575.711 334.699 575.711 328.016C575.711 325.44 575.767 322.752 575.879 319.952C575.991 317.152 576.122 314.24 576.271 311.216C576.831 311.067 577.69 310.974 578.847 310.936C580.042 310.862 581.311 310.824 582.655 310.824C584.41 310.824 586.127 310.88 587.807 310.992C589.525 311.067 590.701 311.179 591.335 311.328C591.223 311.888 591.055 313.027 590.831 314.744C590.645 316.424 590.477 318.44 590.327 320.792C590.178 323.107 590.103 325.496 590.103 327.96C590.103 330.536 590.215 333.094 590.439 335.632C590.663 338.134 591.093 340.43 591.727 342.52C592.362 344.574 593.295 346.235 594.527 347.504C595.759 348.736 597.346 349.352 599.287 349.352C601.938 349.352 604.141 348.475 605.895 346.72C607.65 344.928 608.994 342.39 609.927 339.104C610.861 335.819 611.421 331.936 611.607 327.456C611.719 325.963 611.794 324.376 611.831 322.696C611.906 321.016 611.943 319.43 611.943 317.936C611.981 316.443 611.981 315.174 611.943 314.128C611.943 313.046 611.943 312.355 611.943 312.056C612.727 311.982 613.511 311.926 614.295 311.888C615.079 311.851 615.863 311.832 616.647 311.832C619.709 311.832 622.658 312.15 625.495 312.784C625.682 316.63 625.775 321.072 625.775 326.112C625.775 329.584 625.719 333.355 625.607 337.424C625.533 341.456 625.402 345.6 625.215 349.856C625.066 354.112 624.879 358.331 624.655 362.512C624.319 368.859 623.069 374.478 620.903 379.368C618.738 384.296 615.602 388.16 611.495 390.96C607.389 393.76 602.237 395.16 596.039 395.16ZM665.822 367.048C655.966 367.048 648.593 364.398 643.702 359.096C638.812 353.758 636.366 346.048 636.366 335.968C636.366 329.398 637.617 323.891 640.118 319.448C642.657 315.006 646.166 311.664 650.646 309.424C655.164 307.147 660.372 306.008 666.27 306.008C672.393 306.008 677.452 307.408 681.446 310.208C685.478 313.008 688.484 316.891 690.462 321.856C692.478 326.822 693.486 332.571 693.486 339.104C693.486 344.742 692.404 349.651 690.238 353.832C688.073 358.014 684.937 361.262 680.83 363.576C676.724 365.891 671.721 367.048 665.822 367.048ZM665.262 352.992C667.652 352.992 669.724 352.582 671.478 351.76C673.27 350.902 674.764 349.726 675.958 348.232C677.153 346.702 678.03 344.947 678.59 342.968C679.188 340.99 679.486 338.88 679.486 336.64C679.486 332.907 678.964 329.603 677.918 326.728C676.873 323.854 675.305 321.614 673.214 320.008C671.161 318.366 668.585 317.544 665.486 317.544C662.276 317.544 659.606 318.347 657.478 319.952C655.388 321.558 653.838 323.704 652.83 326.392C651.822 329.08 651.318 332.011 651.318 335.184C651.318 340.374 652.494 344.648 654.846 348.008C657.236 351.331 660.708 352.992 665.262 352.992ZM740.071 310.488C740.893 310.19 742.05 309.966 743.543 309.816C745.074 309.667 746.567 309.592 748.023 309.592C749.218 309.592 750.543 309.648 751.999 309.76C753.493 309.835 754.706 309.947 755.639 310.096C756.162 313.344 756.573 316.63 756.871 319.952C757.17 323.238 757.319 326.486 757.319 329.696C757.319 335.035 756.853 340.056 755.919 344.76C755.023 349.464 753.511 353.627 751.383 357.248C749.293 360.832 746.493 363.632 742.983 365.648C739.474 367.702 735.143 368.728 729.991 368.728C724.429 368.728 719.855 367.646 716.271 365.48C712.687 363.278 709.887 360.235 707.871 356.352C705.893 352.432 704.511 347.896 703.727 342.744C702.943 337.555 702.551 331.974 702.551 326C702.551 323.051 702.626 320.064 702.775 317.04C702.962 314.016 703.167 311.011 703.391 308.024C704.25 307.95 705.37 307.912 706.751 307.912C708.17 307.875 709.458 307.856 710.615 307.856C712.258 307.894 713.882 308.006 715.487 308.192C717.13 308.379 718.437 308.622 719.407 308.92C719.109 311.72 718.847 314.651 718.623 317.712C718.437 320.736 718.343 323.742 718.343 326.728C718.343 332.216 718.754 337.051 719.575 341.232C720.397 345.376 721.685 348.606 723.439 350.92C725.194 353.235 727.49 354.392 730.327 354.392C733.015 354.392 735.199 353.347 736.879 351.256C738.597 349.166 739.847 346.272 740.631 342.576C741.453 338.843 741.863 334.55 741.863 329.696C741.863 326.411 741.695 323.107 741.359 319.784C741.023 316.424 740.594 313.326 740.071 310.488ZM782.448 315.64C783.382 313.886 784.8 312.243 786.704 310.712C788.608 309.182 790.811 307.931 793.312 306.96C795.851 305.99 798.502 305.504 801.264 305.504C802.982 305.504 804.699 305.672 806.416 306.008C808.171 306.344 809.478 306.792 810.336 307.352L807.256 322.976C806.435 322.64 805.352 322.267 804.008 321.856C802.664 321.446 801.096 321.24 799.304 321.24C797.4 321.24 795.534 321.558 793.704 322.192C791.912 322.827 790.251 323.723 788.72 324.88C787.19 326.038 785.883 327.4 784.8 328.968C785.211 331.32 785.64 334.251 786.088 337.76C786.574 341.232 787.022 344.816 787.432 348.512C787.843 352.171 788.179 355.512 788.44 358.536C788.739 361.56 788.888 363.8 788.888 365.256C786.574 365.555 783.886 365.742 780.824 365.816C777.8 365.891 774.907 365.91 772.144 365.872C772.144 362.624 772.051 359.022 771.864 355.064C771.715 351.107 771.491 347.019 771.192 342.8C770.894 338.544 770.52 334.344 770.072 330.2C769.624 326.019 769.102 322.08 768.504 318.384C767.944 314.688 767.328 311.44 766.656 308.64C768.187 308.192 769.886 307.763 771.752 307.352C773.656 306.942 775.392 306.606 776.96 306.344C778.528 306.083 779.536 305.934 779.984 305.896C780.432 307.016 780.936 308.603 781.496 310.656C782.056 312.672 782.374 314.334 782.448 315.64ZM860.778 366.152C860.704 365.592 860.517 364.398 860.218 362.568C859.92 360.739 859.565 358.518 859.154 355.904C858.744 353.291 858.314 350.528 857.866 347.616C857.456 344.667 857.082 341.811 856.746 339.048C855.813 339.235 854.544 339.552 852.938 340C851.333 340.411 849.952 340.822 848.794 341.232C848.309 339.627 847.898 337.592 847.562 335.128C847.264 332.627 847.114 330.238 847.114 327.96C847.45 327.848 848.01 327.68 848.794 327.456C849.578 327.232 850.437 327.008 851.37 326.784C852.304 326.523 853.181 326.318 854.002 326.168C854.824 325.982 855.402 325.851 855.738 325.776C855.514 323.947 855.328 322.099 855.178 320.232C855.029 318.366 854.954 316.574 854.954 314.856C854.954 310.339 855.738 306.158 857.306 302.312C858.874 298.467 861.282 295.368 864.53 293.016C867.778 290.627 871.866 289.432 876.794 289.432C879.93 289.432 882.618 289.824 884.858 290.608C887.098 291.392 888.984 292.363 890.514 293.52C892.045 294.678 893.277 295.854 894.21 297.048C895.144 298.206 895.816 299.176 896.226 299.96C895.554 301.192 894.677 302.667 893.594 304.384C892.512 306.064 891.466 307.651 890.458 309.144C889.45 310.6 888.704 311.627 888.218 312.224C887.845 311.627 887.341 310.899 886.706 310.04C886.072 309.182 885.325 308.323 884.466 307.464C883.645 306.606 882.712 305.896 881.666 305.336C880.621 304.776 879.445 304.496 878.138 304.496C876.085 304.496 874.442 305.038 873.21 306.12C872.016 307.166 871.157 308.566 870.634 310.32C870.112 312.075 869.85 313.998 869.85 316.088C869.85 317.171 869.906 318.403 870.018 319.784C870.168 321.128 870.354 322.36 870.578 323.48C871.773 323.406 873.341 323.35 875.282 323.312C877.261 323.238 879.184 323.2 881.05 323.2C882.954 323.163 884.392 323.182 885.362 323.256C885.586 324.974 885.736 327.027 885.81 329.416C885.885 331.806 885.922 333.952 885.922 335.856C885.586 335.856 884.597 335.912 882.954 336.024C881.349 336.099 879.538 336.211 877.522 336.36C875.506 336.472 873.77 336.603 872.314 336.752C872.538 338.059 872.837 339.795 873.21 341.96C873.584 344.088 873.994 346.384 874.442 348.848C874.89 351.312 875.32 353.683 875.73 355.96C876.178 358.238 876.57 360.216 876.906 361.896C877.242 363.576 877.466 364.64 877.578 365.088C876.272 365.312 874.61 365.499 872.594 365.648C870.578 365.798 868.506 365.91 866.378 365.984C864.288 366.059 862.421 366.115 860.778 366.152ZM926.135 367.048C916.279 367.048 908.905 364.398 904.015 359.096C899.124 353.758 896.679 346.048 896.679 335.968C896.679 329.398 897.929 323.891 900.431 319.448C902.969 315.006 906.479 311.664 910.959 309.424C915.476 307.147 920.684 306.008 926.583 306.008C932.705 306.008 937.764 307.408 941.759 310.208C945.791 313.008 948.796 316.891 950.775 321.856C952.791 326.822 953.799 332.571 953.799 339.104C953.799 344.742 952.716 349.651 950.551 353.832C948.385 358.014 945.249 361.262 941.143 363.576C937.036 365.891 932.033 367.048 926.135 367.048ZM925.575 352.992C927.964 352.992 930.036 352.582 931.791 351.76C933.583 350.902 935.076 349.726 936.271 348.232C937.465 346.702 938.343 344.947 938.903 342.968C939.5 340.99 939.799 338.88 939.799 336.64C939.799 332.907 939.276 329.603 938.231 326.728C937.185 323.854 935.617 321.614 933.527 320.008C931.473 318.366 928.897 317.544 925.799 317.544C922.588 317.544 919.919 318.347 917.791 319.952C915.7 321.558 914.151 323.704 913.143 326.392C912.135 329.08 911.631 332.011 911.631 335.184C911.631 340.374 912.807 344.648 915.159 348.008C917.548 351.331 921.02 352.992 925.575 352.992ZM991.76 367.048C981.904 367.048 974.53 364.398 969.64 359.096C964.749 353.758 962.304 346.048 962.304 335.968C962.304 329.398 963.554 323.891 966.056 319.448C968.594 315.006 972.104 311.664 976.584 309.424C981.101 307.147 986.309 306.008 992.208 306.008C998.33 306.008 1003.39 307.408 1007.38 310.208C1011.42 313.008 1014.42 316.891 1016.4 321.856C1018.42 326.822 1019.42 332.571 1019.42 339.104C1019.42 344.742 1018.34 349.651 1016.18 353.832C1014.01 358.014 1010.87 361.262 1006.77 363.576C1002.66 365.891 997.658 367.048 991.76 367.048ZM991.2 352.992C993.589 352.992 995.661 352.582 997.416 351.76C999.208 350.902 1000.7 349.726 1001.9 348.232C1003.09 346.702 1003.97 344.947 1004.53 342.968C1005.13 340.99 1005.42 338.88 1005.42 336.64C1005.42 332.907 1004.9 329.603 1003.86 326.728C1002.81 323.854 1001.24 321.614 999.152 320.008C997.098 318.366 994.522 317.544 991.424 317.544C988.213 317.544 985.544 318.347 983.416 319.952C981.325 321.558 979.776 323.704 978.768 326.392C977.76 329.08 977.256 332.011 977.256 335.184C977.256 340.374 978.432 344.648 980.784 348.008C983.173 351.331 986.645 352.992 991.2 352.992ZM1069.2 365.48C1069.16 364.92 1069.13 364.099 1069.09 363.016C1069.05 361.934 1069.01 360.851 1068.98 359.768C1068.98 358.648 1068.98 357.79 1068.98 357.192C1068.6 357.752 1067.95 358.499 1067.02 359.432C1066.08 360.366 1064.83 361.299 1063.26 362.232C1061.73 363.166 1059.85 363.968 1057.61 364.64C1055.37 365.275 1052.74 365.592 1049.71 365.592C1044.93 365.592 1040.81 364.472 1037.34 362.232C1033.9 359.955 1031.27 356.856 1029.44 352.936C1027.61 349.016 1026.7 344.555 1026.7 339.552C1026.7 334.699 1027.61 330.182 1029.44 326C1031.31 321.819 1034.09 318.44 1037.78 315.864C1041.52 313.251 1046.18 311.944 1051.78 311.944C1054.77 311.944 1057.46 312.28 1059.85 312.952C1062.28 313.624 1064.31 314.446 1065.95 315.416C1067.63 316.387 1068.81 317.339 1069.48 318.272C1069.59 316.331 1069.72 314.072 1069.87 311.496C1070.06 308.92 1070.26 306.232 1070.49 303.432C1070.71 300.632 1070.92 297.963 1071.1 295.424C1071.33 292.886 1071.53 290.702 1071.72 288.872C1071.91 287.006 1072.04 285.736 1072.11 285.064C1074.05 285.064 1076.22 285.176 1078.61 285.4C1081.04 285.587 1083.16 285.923 1084.99 286.408C1084.32 294.995 1083.8 303.582 1083.42 312.168C1083.09 320.718 1082.85 329.435 1082.7 338.32C1082.58 347.168 1082.53 356.371 1082.53 365.928C1081.74 365.928 1080.48 365.91 1078.72 365.872C1077 365.835 1075.23 365.779 1073.4 365.704C1071.61 365.63 1070.21 365.555 1069.2 365.48ZM1053.74 351.312C1055.69 351.312 1057.44 351.051 1059.01 350.528C1060.61 350.006 1062.03 349.352 1063.26 348.568C1064.53 347.747 1065.62 346.907 1066.51 346.048C1067.41 345.152 1068.12 344.331 1068.64 343.584C1068.64 342.8 1068.64 341.774 1068.64 340.504C1068.64 339.235 1068.64 337.91 1068.64 336.528C1068.68 335.147 1068.7 333.859 1068.7 332.664C1068.73 331.47 1068.77 330.555 1068.81 329.92C1067.99 329.136 1066.79 328.352 1065.22 327.568C1063.69 326.747 1061.96 326.075 1060.02 325.552C1058.11 324.992 1056.13 324.712 1054.08 324.712C1049.86 324.712 1046.6 325.963 1044.28 328.464C1042 330.928 1040.86 334.214 1040.86 338.32C1040.86 342.576 1041.97 345.806 1044.17 348.008C1046.41 350.211 1049.6 351.312 1053.74 351.312Z" fill="white"/>
<path d="M406.497 221.648V81.6484H440.697V221.648H406.497ZM319.497 221.648V81.6484H353.697V221.648H319.497ZM333.097 167.248V136.448H424.497V167.248H333.097ZM522.952 223.648C511.219 223.648 500.952 221.315 492.152 216.648C483.485 211.982 476.752 205.582 471.952 197.448C467.285 189.182 464.952 179.782 464.952 169.248C464.952 160.982 466.285 153.448 468.952 146.648C471.619 139.715 475.352 133.782 480.152 128.848C485.085 123.915 490.819 120.115 497.352 117.448C504.019 114.648 511.285 113.248 519.152 113.248C526.619 113.248 533.419 114.582 539.552 117.248C545.685 119.915 551.019 123.648 555.552 128.448C560.085 133.248 563.552 138.915 565.952 145.448C568.352 151.982 569.485 159.115 569.352 166.848L569.152 175.648H484.752L479.952 157.448H542.952L539.552 161.048V157.048C539.285 153.715 538.219 150.848 536.352 148.448C534.619 145.915 532.285 143.915 529.352 142.448C526.552 140.982 523.352 140.248 519.752 140.248C514.419 140.248 509.885 141.315 506.152 143.448C502.552 145.448 499.819 148.382 497.952 152.248C496.085 156.115 495.152 160.915 495.152 166.648C495.152 172.382 496.352 177.448 498.752 181.848C501.285 186.248 504.885 189.648 509.552 192.048C514.352 194.448 520.019 195.648 526.552 195.648C530.952 195.648 534.952 194.982 538.552 193.648C542.152 192.315 546.019 190.048 550.152 186.848L565.152 208.048C561.019 211.515 556.619 214.448 551.952 216.848C547.285 219.115 542.485 220.782 537.552 221.848C532.752 223.048 527.885 223.648 522.952 223.648ZM601.382 267.648L625.582 210.848L625.982 227.648L574.582 115.448H610.982L633.382 169.048C634.582 171.582 635.715 174.448 636.782 177.648C637.848 180.848 638.648 183.848 639.182 186.648L634.582 189.248C635.382 187.248 636.248 184.715 637.182 181.648C638.248 178.582 639.382 175.315 640.582 171.848L660.182 115.448H696.782L651.782 221.648L633.582 267.648H601.382ZM761.8 223.648C747.934 223.648 736.2 221.248 726.6 216.448C717.134 211.515 709 204.582 702.2 195.648L723 172.248C729.534 181.182 736.134 187.182 742.8 190.248C749.467 193.315 756.334 194.848 763.4 194.848C767 194.848 770.2 194.382 773 193.448C775.934 192.515 778.2 191.182 779.8 189.448C781.534 187.582 782.4 185.382 782.4 182.848C782.4 180.848 781.867 179.048 780.8 177.448C779.867 175.848 778.534 174.448 776.8 173.248C775.067 172.048 773.067 170.982 770.8 170.048C768.534 168.982 766 168.115 763.2 167.448C760.534 166.782 757.8 166.182 755 165.648C747.267 164.048 740.534 161.982 734.8 159.448C729.2 156.782 724.467 153.648 720.6 150.048C716.867 146.315 714.067 142.115 712.2 137.448C710.334 132.648 709.4 127.248 709.4 121.248C709.4 112.715 711.8 105.248 716.6 98.8484C721.534 92.4484 728 87.4484 736 83.8484C744 80.2484 752.667 78.4484 762 78.4484C775.6 78.4484 786.534 80.6484 794.8 85.0484C803.2 89.3151 809.867 95.2484 814.8 102.848L793.6 123.448C789.467 118.115 784.734 114.115 779.4 111.448C774.2 108.782 768.734 107.448 763 107.448C759.134 107.448 755.734 107.915 752.8 108.848C749.867 109.782 747.6 111.182 746 113.048C744.534 114.782 743.8 116.915 743.8 119.448C743.8 121.582 744.4 123.515 745.6 125.248C746.934 126.848 748.734 128.248 751 129.448C753.267 130.648 755.867 131.715 758.8 132.648C761.734 133.448 764.8 134.115 768 134.648C775.334 136.115 781.934 138.048 787.8 140.448C793.8 142.848 798.934 145.848 803.2 149.448C807.467 152.915 810.734 157.048 813 161.848C815.4 166.515 816.6 171.915 816.6 178.048C816.6 187.648 814.267 195.848 809.6 202.648C804.934 209.448 798.467 214.648 790.2 218.248C781.934 221.848 772.467 223.648 761.8 223.648ZM895.553 221.648V156.448C895.553 150.982 894.02 146.982 890.953 144.448C888.02 141.782 883.887 140.448 878.553 140.448C873.353 140.448 868.687 141.448 864.553 143.448C860.553 145.315 856.687 148.448 852.953 152.848L833.753 134.248C840.153 127.715 847.487 122.582 855.753 118.848C864.02 115.115 873.02 113.248 882.753 113.248C891.687 113.248 899.42 114.582 905.953 117.248C912.487 119.915 917.553 123.982 921.153 129.448C924.753 134.915 926.553 141.848 926.553 150.248V221.648H895.553ZM867.953 223.648C861.287 223.648 855.22 222.315 849.753 219.648C844.42 216.982 840.153 213.315 836.953 208.648C833.887 203.848 832.353 198.248 832.353 191.848C832.353 186.382 833.353 181.582 835.353 177.448C837.353 173.315 840.287 169.915 844.153 167.248C848.153 164.448 853.087 162.382 858.953 161.048C864.953 159.582 871.887 158.848 879.753 158.848H911.953L910.153 179.048H880.553C877.753 179.048 875.287 179.315 873.153 179.848C871.02 180.248 869.22 180.982 867.753 182.048C866.287 182.982 865.153 184.115 864.353 185.448C863.687 186.782 863.353 188.382 863.353 190.248C863.353 192.248 863.887 193.982 864.953 195.448C866.02 196.915 867.42 198.048 869.153 198.848C871.02 199.648 873.153 200.048 875.553 200.048C879.02 200.048 882.287 199.515 885.353 198.448C888.553 197.248 891.353 195.582 893.753 193.448C896.287 191.315 898.287 188.848 899.753 186.048L905.353 200.448C902.553 204.982 899.153 208.982 895.153 212.448C891.287 215.915 887.02 218.648 882.353 220.648C877.82 222.648 873.02 223.648 867.953 223.648ZM952.235 221.648V73.6484H984.435V221.648H952.235ZM1067.62 221.648V156.448C1067.62 150.982 1066.09 146.982 1063.02 144.448C1060.09 141.782 1055.96 140.448 1050.62 140.448C1045.42 140.448 1040.76 141.448 1036.62 143.448C1032.62 145.315 1028.76 148.448 1025.02 152.848L1005.82 134.248C1012.22 127.715 1019.56 122.582 1027.82 118.848C1036.09 115.115 1045.09 113.248 1054.82 113.248C1063.76 113.248 1071.49 114.582 1078.02 117.248C1084.56 119.915 1089.62 123.982 1093.22 129.448C1096.82 134.915 1098.62 141.848 1098.62 150.248V221.648H1067.62ZM1040.02 223.648C1033.36 223.648 1027.29 222.315 1021.82 219.648C1016.49 216.982 1012.22 213.315 1009.02 208.648C1005.96 203.848 1004.42 198.248 1004.42 191.848C1004.42 186.382 1005.42 181.582 1007.42 177.448C1009.42 173.315 1012.36 169.915 1016.22 167.248C1020.22 164.448 1025.16 162.382 1031.02 161.048C1037.02 159.582 1043.96 158.848 1051.82 158.848H1084.02L1082.22 179.048H1052.62C1049.82 179.048 1047.36 179.315 1045.22 179.848C1043.09 180.248 1041.29 180.982 1039.82 182.048C1038.36 182.982 1037.22 184.115 1036.42 185.448C1035.76 186.782 1035.42 188.382 1035.42 190.248C1035.42 192.248 1035.96 193.982 1037.02 195.448C1038.09 196.915 1039.49 198.048 1041.22 198.848C1043.09 199.648 1045.22 200.048 1047.62 200.048C1051.09 200.048 1054.36 199.515 1057.42 198.448C1060.62 197.248 1063.42 195.582 1065.82 193.448C1068.36 191.315 1070.36 188.848 1071.82 186.048L1077.42 200.448C1074.62 204.982 1071.22 208.982 1067.22 212.448C1063.36 215.915 1059.09 218.648 1054.42 220.648C1049.89 222.648 1045.09 223.648 1040.02 223.648ZM1164.7 223.648C1155.64 223.648 1147.44 221.315 1140.1 216.648C1132.9 211.982 1127.24 205.515 1123.1 197.248C1118.97 188.848 1116.9 179.315 1116.9 168.648C1116.9 157.982 1118.97 148.515 1123.1 140.248C1127.24 131.848 1132.9 125.248 1140.1 120.448C1147.44 115.648 1155.7 113.248 1164.9 113.248C1169.7 113.248 1174.3 113.982 1178.7 115.448C1183.24 116.915 1187.24 118.915 1190.7 121.448C1194.3 123.982 1197.24 126.848 1199.5 130.048C1201.77 133.248 1203.17 136.648 1203.7 140.248L1195.9 142.048V73.6484H1228.1V221.648H1198.1L1196.3 197.648L1202.7 198.848C1202.44 202.048 1201.24 205.182 1199.1 208.248C1196.97 211.182 1194.1 213.848 1190.5 216.248C1187.04 218.515 1183.1 220.315 1178.7 221.648C1174.3 222.982 1169.64 223.648 1164.7 223.648ZM1172.7 197.048C1177.64 197.048 1181.84 195.915 1185.3 193.648C1188.9 191.248 1191.7 187.915 1193.7 183.648C1195.7 179.382 1196.7 174.382 1196.7 168.648C1196.7 162.782 1195.7 157.715 1193.7 153.448C1191.7 149.182 1188.9 145.915 1185.3 143.648C1181.84 141.248 1177.64 140.048 1172.7 140.048C1167.9 140.048 1163.7 141.248 1160.1 143.648C1156.64 145.915 1153.9 149.182 1151.9 153.448C1149.9 157.715 1148.9 162.782 1148.9 168.648C1148.9 174.382 1149.9 179.382 1151.9 183.648C1153.9 187.915 1156.64 191.248 1160.1 193.648C1163.7 195.915 1167.9 197.048 1172.7 197.048Z" fill="white"/>
<g clip-path="url(#clip1_185_748)">
<path d="M145.097 101.147C154.257 99.3937 175.597 12.1472 241.842 72.731C291.097 117.778 268.143 204.072 204.51 226.056C140.875 248.039 100.097 230.981 81.5622 213.813C43.5973 178.647 15.0974 96.647 135.597 101.147L145.097 101.147Z" fill="#ED4C4C"/>
<path d="M177.224 95.4907C171.485 99.5646 160.023 125.769 170.753 136.3C181.484 146.832 198.703 127.737 205.284 127.477C211.866 127.216 221.342 143.756 215.717 161.121C210.091 178.487 198.721 185.032 190.036 182.451C181.353 179.87 164.353 152.618 159.477 154.982C154.602 157.345 173.464 181.676 170.241 193.001C167.017 204.326 144.839 201.719 132.08 196.75C119.322 191.779 116.68 186.013 120.066 176.589C123.452 167.166 150.804 154.265 135.663 136.138C120.522 118.012 87.2368 135.989 88.189 178.141C89.1412 220.293 175.469 223.152 203.633 199.269C231.798 175.385 241.504 144.523 235.093 121.693C227.861 95.9402 203.115 77.1087 177.222 95.4881L177.224 95.4907Z" fill="#873535"/>
</g>
</g>
<defs>
<clipPath id="clip0_185_748">
<rect width="1287" height="439" fill="white"/>
</clipPath>
<clipPath id="clip1_185_748">
<rect width="224" height="231" fill="white" transform="translate(21 220.632) rotate(-80.0522)"/>
</clipPath>
</defs>
</svg>
